<svg id="PL_Download_on_the_App_Store" data-name="PL Download on the App Store" xmlns="http://www.w3.org/2000/svg" viewBox="0 0 135 40"><defs><style>.cls-1{fill:#a6a6a6;}.cls-2{fill:#fff;}</style></defs><title>Artboard 1</title><path class="cls-1" d="M130.2,40H4.73A4.74,4.74,0,0,1,0,35.27V4.73A4.73,4.73,0,0,1,4.73,0H130.2A4.8,4.8,0,0,1,135,4.73V35.27A4.8,4.8,0,0,1,130.2,40Z"/><path d="M134,35.27a3.83,3.83,0,0,1-3.83,3.83H4.73A3.83,3.83,0,0,1,.89,35.27V4.73A3.84,3.84,0,0,1,4.73.89H130.2A3.83,3.83,0,0,1,134,4.73V35.27Z"/><path class="cls-2" d="M30.13,19.79a5.8,5.8,0,0,1,2.76-4.86,5.93,5.93,0,0,0-4.68-2.53c-2-.21-3.87,1.18-4.88,1.18s-2.57-1.16-4.23-1.12a6.23,6.23,0,0,0-5.24,3.2c-2.27,3.92-.58,9.69,1.59,12.86,1.09,1.55,2.35,3.29,4,3.23s2.23-1,4.19-1,2.51,1,4.21,1,2.84-1.56,3.89-3.13a12.84,12.84,0,0,0,1.78-3.62A5.6,5.6,0,0,1,30.13,19.79Z"/><path class="cls-2" d="M26.93,10.32a5.71,5.71,0,0,0,1.31-4.09,5.81,5.81,0,0,0-3.76,1.94,5.43,5.43,0,0,0-1.34,3.94A4.8,4.8,0,0,0,26.93,10.32Z"/><path class="cls-2" d="M53.65,31.52H51.38l-1.24-3.91H45.81l-1.18,3.91H42.41L46.7,18.21h2.65ZM49.76,26l-1.13-3.47Q48.45,22,48,20h0q-.2.85-.63,2.51L46.18,26Z"/><path class="cls-2" d="M64.66,26.6a5.46,5.46,0,0,1-1.32,3.87,3.87,3.87,0,0,1-2.94,1.26,2.94,2.94,0,0,1-2.72-1.36h0v5.05H55.5V25.08q0-1.54-.08-3.16H57.3l.12,1.52h0a3.79,3.79,0,0,1,6.07-.37A5.29,5.29,0,0,1,64.66,26.6Zm-2.17.08a4,4,0,0,0-.63-2.31A2.18,2.18,0,0,0,60,23.42a2.21,2.21,0,0,0-1.43.52,2.42,2.42,0,0,0-.84,1.37,2.79,2.79,0,0,0-.1.65v1.6a2.56,2.56,0,0,0,.64,1.77,2.13,2.13,0,0,0,1.67.72,2.19,2.19,0,0,0,1.88-.93A4.09,4.09,0,0,0,62.49,26.68Z"/><path class="cls-2" d="M75.7,26.6a5.45,5.45,0,0,1-1.32,3.87,3.87,3.87,0,0,1-2.94,1.26,2.94,2.94,0,0,1-2.72-1.36h0v5.05H66.54V25.08q0-1.54-.08-3.16h1.88l.12,1.52h0a3.8,3.8,0,0,1,6.07-.37A5.29,5.29,0,0,1,75.7,26.6Zm-2.17.08a4,4,0,0,0-.63-2.31A2.18,2.18,0,0,0,71,23.42a2.21,2.21,0,0,0-1.43.52,2.43,2.43,0,0,0-.84,1.37,2.82,2.82,0,0,0-.1.65v1.6a2.57,2.57,0,0,0,.64,1.77,2.13,2.13,0,0,0,1.67.72,2.19,2.19,0,0,0,1.87-.93A4.09,4.09,0,0,0,73.53,26.68Z"/><path class="cls-2" d="M88,27.78a3.55,3.55,0,0,1-1.18,2.76,5.24,5.24,0,0,1-3.62,1.17,6.35,6.35,0,0,1-3.45-.83l.49-1.78a5.83,5.83,0,0,0,3.08.85,2.91,2.91,0,0,0,1.88-.54A1.78,1.78,0,0,0,85.91,28a1.86,1.86,0,0,0-.55-1.36,5.14,5.14,0,0,0-1.84-1Q80,24.26,80,21.75a3.38,3.38,0,0,1,1.22-2.69,4.84,4.84,0,0,1,3.26-1,6.46,6.46,0,0,1,3,.63L87,20.38a5.25,5.25,0,0,0-2.55-.61,2.58,2.58,0,0,0-1.76.55,1.58,1.58,0,0,0-.53,1.2,1.63,1.63,0,0,0,.61,1.3,6.91,6.91,0,0,0,1.93,1,6.57,6.57,0,0,1,2.53,1.62A3.39,3.39,0,0,1,88,27.78Z"/><path class="cls-2" d="M95.09,23.52H92.74v4.66Q92.74,30,94,30a3.88,3.88,0,0,0,.95-.1L95,31.48a4.86,4.86,0,0,1-1.66.24,2.56,2.56,0,0,1-2-.77,3.78,3.78,0,0,1-.71-2.59V23.52h-1.4v-1.6h1.4V20.16l2.09-.63v2.39h2.35Z"/><path class="cls-2" d="M105.69,26.64a5.27,5.27,0,0,1-1.26,3.63,4.51,4.51,0,0,1-3.51,1.46,4.29,4.29,0,0,1-3.37-1.4,5.1,5.1,0,0,1-1.25-3.53,5.22,5.22,0,0,1,1.29-3.65,4.48,4.48,0,0,1,3.49-1.42,4.38,4.38,0,0,1,3.4,1.4A5.06,5.06,0,0,1,105.69,26.64Zm-2.21.07a4.33,4.33,0,0,0-.57-2.28A2.11,2.11,0,0,0,101,23.28a2.14,2.14,0,0,0-2,1.15,4.42,4.42,0,0,0-.57,2.32A4.33,4.33,0,0,0,99,29a2.18,2.18,0,0,0,3.85,0A4.32,4.32,0,0,0,103.48,26.71Z"/><path class="cls-2" d="M112.62,23.79a3.69,3.69,0,0,0-.67-.06,2,2,0,0,0-1.74.85,3.19,3.19,0,0,0-.53,1.9v5h-2.13l0-6.58q0-1.66-.08-3h1.86l.08,1.84h.06a3.26,3.26,0,0,1,1.07-1.52,2.57,2.57,0,0,1,1.54-.51,3.27,3.27,0,0,1,.53,0Z"/><path class="cls-2" d="M122.16,26.26a5,5,0,0,1-.08,1h-6.4a2.79,2.79,0,0,0,.93,2.17,3.17,3.17,0,0,0,2.09.67,7.07,7.07,0,0,0,2.59-.46l.33,1.48a8,8,0,0,1-3.22.59,4.65,4.65,0,0,1-3.5-1.31,4.84,4.84,0,0,1-1.27-3.52,5.5,5.5,0,0,1,1.18-3.61,4.09,4.09,0,0,1,3.36-1.54,3.57,3.57,0,0,1,3.14,1.54A5.18,5.18,0,0,1,122.16,26.26Zm-2-.55a2.91,2.91,0,0,0-.41-1.64,1.86,1.86,0,0,0-1.7-.89,2,2,0,0,0-1.7.87,3.18,3.18,0,0,0-.63,1.66Z"/><path class="cls-2" d="M47.87,8.81a2,2,0,0,1-.53,1.45,2.68,2.68,0,0,1-2,.71,2.84,2.84,0,0,1-.6,0v2.53h-1V7a9.67,9.67,0,0,1,1.71-.14,2.85,2.85,0,0,1,1.88.53A1.78,1.78,0,0,1,47.87,8.81Zm-1,0A1.08,1.08,0,0,0,46.45,8a1.56,1.56,0,0,0-1-.31,3.47,3.47,0,0,0-.71.06v2.35a2.51,2.51,0,0,0,.61.06,1.62,1.62,0,0,0,1.09-.34A1.17,1.17,0,0,0,46.82,8.86Z"/><path class="cls-2" d="M53.73,11a2.58,2.58,0,0,1-.62,1.78,2.22,2.22,0,0,1-1.73.72,2.11,2.11,0,0,1-1.65-.69,2.51,2.51,0,0,1-.62-1.74,2.56,2.56,0,0,1,.63-1.79,2.2,2.2,0,0,1,1.71-.7,2.16,2.16,0,0,1,1.67.69A2.49,2.49,0,0,1,53.73,11Zm-1.09,0A2.13,2.13,0,0,0,52.36,10a1,1,0,0,0-.94-.56,1.05,1.05,0,0,0-1,.56,2.17,2.17,0,0,0-.28,1.14,2.13,2.13,0,0,0,.28,1.12,1.07,1.07,0,0,0,1.89,0A2.12,2.12,0,0,0,52.64,11.08Z"/><path class="cls-2" d="M59.77,11a2.68,2.68,0,0,1-.66,1.9,1.87,1.87,0,0,1-1.43.63,1.59,1.59,0,0,1-1.48-.83h0l-.06.73h-.89q0-.57,0-1.27V6.57h1V9.42h0a1.61,1.61,0,0,1,1.5-.79,1.72,1.72,0,0,1,1.39.65A2.64,2.64,0,0,1,59.77,11Zm-1.07,0a1.9,1.9,0,0,0-.31-1.12,1.11,1.11,0,0,0-1.62-.22,1.23,1.23,0,0,0-.42.67,1.41,1.41,0,0,0,0,.33v.82a1.18,1.18,0,0,0,.33.83,1.06,1.06,0,0,0,.81.35,1.08,1.08,0,0,0,.92-.45A2,2,0,0,0,58.7,11.06Z"/><path class="cls-2" d="M62.49,7.32a.6.6,0,0,1-.18.46.66.66,0,0,1-.48.17.6.6,0,0,1-.44-.18.61.61,0,0,1-.18-.45.59.59,0,0,1,.18-.45.68.68,0,0,1,.91,0A.59.59,0,0,1,62.49,7.32Zm-.12,6.12h-1V8.73h1Z"/><path class="cls-2" d="M68.11,10.86a2.51,2.51,0,0,1,0,.48H64.93a1.37,1.37,0,0,0,.46,1.07,1.56,1.56,0,0,0,1,.33,3.47,3.47,0,0,0,1.27-.22l.16.73a3.94,3.94,0,0,1-1.58.29,2.29,2.29,0,0,1-1.72-.65,2.38,2.38,0,0,1-.62-1.73,2.7,2.7,0,0,1,.58-1.78,2,2,0,0,1,1.65-.76,1.75,1.75,0,0,1,1.54.76A2.54,2.54,0,0,1,68.11,10.86Zm-1-.27a1.42,1.42,0,0,0-.2-.81.91.91,0,0,0-.83-.44,1,1,0,0,0-.83.43,1.57,1.57,0,0,0-.31.82Z"/><path class="cls-2" d="M72.13,9.65a1.77,1.77,0,0,0-.33,0,1,1,0,0,0-.85.42,1.57,1.57,0,0,0-.26.93v2.47h-1V10.21q0-.82,0-1.48h.91l0,.9h0a1.6,1.6,0,0,1,.52-.75,1.27,1.27,0,0,1,.76-.25l.26,0Z"/><path class="cls-2" d="M76.83,13.44H73v-.61l1.88-2.47q.17-.23.64-.77v0H73.17V8.73h3.61v.65l-1.84,2.44q-.31.4-.64.77v0h2.53Z"/><path class="cls-2" d="M85.49,13.45H81.65v-.61l1.88-2.47q.17-.23.64-.77v0H81.83V8.74h3.61v.65L83.6,11.82q-.31.4-.64.77v0h2.53Z"/></svg>